<?xml version="1.0" encoding="UTF-8" standalone="no"?>
<svg width="215px" height="58px" viewBox="0 0 215 58" version="1.1" xmlns="http://www.w3.org/2000/svg" xmlns:xlink="http://www.w3.org/1999/xlink" xmlns:sketch="http://www.bohemiancoding.com/sketch/ns">
    <!-- Generator: Sketch 3.3.3 (12072) - http://www.bohemiancoding.com/sketch -->
    <title>adamWinickLogo</title>
    <desc>Created with Sketch.</desc>
    <defs></defs>
    <g id="Page-1" stroke="none" stroke-width="1" fill="none" fill-rule="evenodd" sketch:type="MSPage">
        <g id="Desktop-HD" sketch:type="MSArtboardGroup" transform="translate(-104.000000, -94.000000)">
            <g id="HOME" sketch:type="MSLayerGroup" transform="translate(-14.000000, 0.000000)">
                <g id="adamWinickLogo" transform="translate(118.000000, 94.000000)" sketch:type="MSShapeGroup">
                    <path d="M55.0321437,50.5111206 C50.6305359,46.1105603 48.4315652,40.7311084 48.4315652,34.3664799 C48.4315652,28.063916 50.6616991,22.6818453 55.1206577,18.2197442 C59.521218,13.7602619 64.9022412,11.5301279 71.2668697,11.5301279 L82.6820341,11.5301279 C85.7742631,11.5301279 88.4498477,10.4323447 90.7103593,8.23075518 C92.9700853,5.97207674 94.100341,3.26847138 94.100341,0.116010962 L94.100341,34.3664799 C94.100341,40.7313703 91.8398295,46.1391048 87.3209013,50.6012058 C82.920341,55.0017661 77.5678624,57.2007369 71.2666078,57.2007369 C64.9022412,57.2007369 59.4911023,54.9708648 55.0321437,50.5111206 L55.0321437,50.5111206 Z" id="Shape" fill="#00BDFF"></path>
                    <path d="M112.338678,30.6470585 C112.338678,23.6994945 114.248538,17.1997381 117.5631,11.6348782 C112.203289,12.1188246 107.595585,14.3136054 103.742083,18.2197442 C99.2826005,22.6818453 97.0529903,28.063916 97.0529903,34.3664799 C97.0529903,40.7313703 99.2514373,46.1108222 103.651998,50.5111206 C108.112527,54.9706029 113.522357,57.2007369 119.886724,57.2007369 L123.492229,57.2007369 C116.611967,50.4472229 112.338678,41.0479781 112.338678,30.6470585 L112.338678,30.6470585 Z" id="Shape" fill="#00BDFF"></path>
                    <path d="M142.720195,34.3664799 C142.720195,28.063916 140.490847,22.7122229 136.031364,18.3098295 C131.570311,13.7935201 126.18824,11.5301279 119.886724,11.5301279 C119.096644,11.5301279 118.323587,11.5660049 117.5631,11.6348782 C114.248538,17.1994762 112.338678,23.6992326 112.338678,30.6470585 C112.338678,41.0479781 116.611967,50.4472229 123.492229,57.2009988 L142.720457,57.2009988 L142.720457,34.3664799 L142.720195,34.3664799 Z" id="Shape" fill="#00A6FF"></path>
                    <path d="M208.2876,18.3098295 C203.828118,13.7935201 198.447881,11.5301279 192.145055,11.5301279 L169.31106,11.5301279 C168.998904,11.5301279 168.700104,11.5612911 168.392923,11.5728136 C169.613264,13.3260719 170.686431,15.1882704 171.594878,17.1426492 C181.793892,21.7328076 188.900152,31.9779111 188.900152,43.8911632 C188.900152,48.0848417 188.013179,52.0698051 186.425688,55.6781912 C187.24405,55.196078 188.02313,54.6126188 188.755859,53.9011023 C191.013752,51.6432095 192.145055,48.9361998 192.145055,45.7837393 C192.145055,48.9361998 193.243624,51.6432095 195.444689,53.9011023 C197.705725,56.10243 200.409592,57.2012607 203.559957,57.2012607 L214.979312,57.2012607 L214.979312,34.3670037 C214.979574,28.063916 212.74944,22.7122229 208.2876,18.3098295 L208.2876,18.3098295 Z" id="Shape" fill="#00BDFF"></path>
                    <path d="M159.57321,14.5644823 C163.859854,14.5644823 167.925475,15.4894275 171.594878,17.1426492 C170.686431,15.1882704 169.613526,13.3263337 168.392923,11.5728136 C164.455097,11.7105603 160.9038,12.7282095 157.742174,14.6257613 C158.348155,14.5877893 158.95754,14.5644823 159.57321,14.5644823 L159.57321,14.5644823 Z" id="Shape" fill="#0085FF"></path>
                    <path d="M171.594878,17.1426492 C173.807205,21.9038124 175.049805,27.2054872 175.049805,32.8009866 C175.049805,39.3243118 173.36673,45.4516809 170.417747,50.7819001 C170.954592,51.901419 171.678155,52.942637 172.610694,53.9008404 C174.870158,56.1021681 177.575335,57.2009988 180.728057,57.2009988 C182.817564,57.2009988 184.715378,56.6858892 186.425688,55.6779294 C188.013179,52.0698051 188.900152,48.0845798 188.900152,43.8909013 C188.900152,31.9779111 181.793892,21.7328076 171.594878,17.1426492 L171.594878,17.1426492 Z" id="Shape" fill="#0085FF"></path>
                    <path d="M157.742174,14.6257613 C156.116973,15.6009866 154.584214,16.7820463 153.165371,18.2197442 C148.706937,22.6818453 146.475755,28.063916 146.475755,34.3664799 L146.475755,57.2007369 L157.8938,57.2007369 C160.984982,57.2007369 163.660566,56.1021681 165.921078,53.9005786 C168.179495,51.6426857 169.31106,48.935676 169.31106,45.7832156 C169.31106,47.6003715 169.688161,49.2630207 170.417747,50.7816382 C173.366991,45.4511571 175.049805,39.3240499 175.049805,32.8007247 C175.049805,27.2052253 173.807205,21.9035505 171.594878,17.1423873 C167.925213,15.4894275 163.859854,14.5642205 159.57321,14.5642205 C158.95754,14.5644823 158.348155,14.5877893 157.742174,14.6257613 L157.742174,14.6257613 Z" id="Shape" fill="#00A6FF"></path>
                    <path d="M45.7156516,34.4188551 C45.7156516,28.1162911 43.4842083,22.7645981 39.0262972,18.3619428 C34.733106,14.0137576 29.5757247,11.7768149 23.5753654,11.6157613 C24.4701949,13.3069549 25.2487515,15.0693788 25.898989,16.8936054 C35.3747016,23.7416565 41.5465895,34.8792326 41.5465895,47.4628867 C41.5465895,50.8505116 41.0922351,54.1284105 40.2550183,57.2525883 L45.7159135,57.2525883 L45.7159135,34.4188551 L45.7156516,34.4188551 Z" id="Shape" fill="#00BDFF"></path>
                    <path d="M17.3000365,12.24243 C20.3810049,13.4213946 23.2671376,14.9913398 25.8987272,16.8941291 C25.2484896,15.0699026 24.469933,13.3074787 23.5751035,11.616285 C23.3412485,11.6094762 23.1162972,11.5827649 22.8803471,11.5827649 C20.9233496,11.582503 19.0705786,11.8197625 17.3000365,12.24243 L17.3000365,12.24243 Z" id="Shape" fill="#0085FF"></path>
                    <path d="M25.8987272,16.8938672 C27.4058222,21.1231608 28.2343971,25.6750853 28.2343971,30.4218453 C28.2343971,40.5341778 24.4992631,49.7689647 18.3443971,56.842229 C19.7988551,57.1127467 21.3098782,57.2528502 22.8800853,57.2528502 L40.2544945,57.2528502 C41.0917113,54.1286724 41.5460658,50.8507734 41.5460658,47.4631486 C41.5465895,34.8794945 35.3744397,23.7421803 25.8987272,16.8938672 L25.8987272,16.8938672 Z" id="Shape" fill="#0085FF"></path>
                    <path d="M6.73806334,18.2721194 C2.27596224,22.7339586 0.046090134,28.1162911 0.046090134,34.4188551 C0.046090134,40.7834836 2.2461084,46.1631973 6.64797808,50.5634957 C10.0070585,53.9223143 13.9069123,56.0120828 18.3443971,56.842229 C24.4992631,49.7689647 28.2343971,40.5344397 28.2343971,30.4218453 C28.2343971,25.6750853 27.4058222,21.1231608 25.8987272,16.8938672 C23.2671376,14.991078 20.3810049,13.4211328 17.3000365,12.2421681 C13.3114068,13.190944 9.78394032,15.1835566 6.73806334,18.2721194 L6.73806334,18.2721194 Z" id="Shape" fill="#00A6FF"></path>
                </g>
            </g>
        </g>
    </g>
</svg>